# Blender v2.78 (sub 0) OBJ File: 'untitled45.blend'
# www.blender.org
o Cone.002
v 0.063654 0.012770 -0.951630
v 0.388659 0.012770 -0.678918
v 0.115947 0.012770 -0.353913
v 0.100259 -0.234730 -0.533228
v -0.209058 0.012770 -0.626624
v 0.209344 -0.234730 -0.663230
v 0.079342 -0.234730 -0.772314
v -0.029743 -0.234730 -0.642312
v 0.096468 -0.630730 -0.576562
v 0.166009 -0.630730 -0.659438
v 0.083133 -0.630730 -0.728980
v 0.013591 -0.630730 -0.646104
v 0.094899 -0.630730 -0.594494
v 0.148078 -0.630730 -0.657870
v 0.084702 -0.630730 -0.711048
v 0.031523 -0.630730 -0.647672
v 0.089800 -1.125730 -0.652771
vt 0.6178 0.2435
vt 0.5643 0.5877
vt 0.7190 0.2560
vt 1.0000 0.0652
vt 0.4512 0.2423
vt 0.4186 0.0312
vt 0.0000 0.0000
vt 0.9366 0.0341
vt 0.2970 0.2299
vt 0.3893 0.5790
vt 0.2822 0.5711
vt 0.4758 0.5798
vt 0.4635 0.5797
vt 0.3977 0.5791
vt 0.3172 0.5730
vt 0.5331 0.5858
vt 0.3067 1.0000
vn 0.7637 -0.0774 0.6409
vn 0.5716 -0.4573 -0.6812
vn -0.5716 -0.4573 0.6812
vn 0.6812 -0.4573 0.5716
vn -0.6812 -0.4573 -0.5716
vn -0.7637 -0.0774 -0.6409
vn -0.6409 -0.0774 0.7637
vn 0.6409 -0.0774 -0.7637
vn 0.0000 -1.0000 -0.0000
vn -0.7634 -0.0833 -0.6406
vn 0.7634 -0.0833 0.6406
vn -0.6406 -0.0833 0.7634
vn 0.6406 -0.0833 -0.7634
s off
f 4/1/1 10/2/1 6/3/1
f 2/4/2 7/5/2 1/6/2
f 5/7/3 4/1/3 3/8/3
f 2/4/4 4/1/4 6/3/4
f 5/7/5 7/5/5 8/9/5
f 8/9/6 11/10/6 12/11/6
f 8/9/7 9/12/7 4/1/7
f 6/3/8 11/10/8 7/5/8
f 12/11/9 13/13/9 9/12/9
f 10/2/9 15/14/9 11/10/9
f 11/10/9 16/15/9 12/11/9
f 9/12/9 14/16/9 10/2/9
f 16/15/10 15/14/10 17/17/10
f 14/16/11 13/13/11 17/17/11
f 13/13/12 16/15/12 17/17/12
f 15/14/13 14/16/13 17/17/13
f 4/1/1 9/12/1 10/2/1
f 2/4/2 6/3/2 7/5/2
f 5/7/3 8/9/3 4/1/3
f 2/4/4 3/8/4 4/1/4
f 5/7/5 1/6/5 7/5/5
f 8/9/6 7/5/6 11/10/6
f 8/9/7 12/11/7 9/12/7
f 6/3/8 10/2/8 11/10/8
f 12/11/9 16/15/9 13/13/9
f 10/2/9 14/16/9 15/14/9
f 11/10/9 15/14/9 16/15/9
f 9/12/9 13/13/9 14/16/9
o Cone.001
v 0.473807 -0.006944 0.697062
v 0.698807 -0.006944 0.922062
v 0.923807 -0.006944 0.697062
v 0.608807 -0.194444 0.697063
v 0.698807 -0.006944 0.472062
v 0.698807 -0.194444 0.787063
v 0.788807 -0.194444 0.697063
v 0.698807 -0.194444 0.607063
v 0.698807 -0.725530 0.697063
vt 0.4287 0.3048
vt 0.7596 0.2887
vt 0.7166 1.0000
vt 0.9472 0.0369
vt 0.1991 0.0771
vt 0.0000 0.0402
vt 0.7550 0.2740
vt 1.0000 0.0000
vt 0.3823 0.2901
vn 0.7021 -0.1190 0.7021
vn 0.6301 -0.4537 0.6301
vn -0.6301 -0.4537 -0.6301
vn -0.6301 -0.4537 0.6301
vn 0.6301 -0.4537 -0.6301
vn 0.7021 -0.1190 -0.7021
vn -0.7021 -0.1190 0.7021
vn -0.7021 -0.1190 -0.7021
s off
f 24/18/14 23/19/14 26/20/14
f 19/21/15 24/18/15 20/22/15
f 22/23/16 21/24/16 18/25/16
f 19/21/17 21/24/17 23/19/17
f 22/23/18 24/18/18 25/26/18
f 25/26/19 24/18/19 26/20/19
f 23/19/20 21/24/20 26/20/20
f 21/24/21 25/26/21 26/20/21
f 19/21/15 23/19/15 24/18/15
f 22/23/16 25/26/16 21/24/16
f 19/21/17 18/25/17 21/24/17
f 22/23/18 20/22/18 24/18/18
o Cone
v -0.362107 0.001544 -0.159080
v -0.180723 0.001544 0.339268
v -0.679070 0.001544 0.520651
v -0.583981 -0.279706 0.316732
v -0.860454 0.001544 0.022304
v -0.384642 -0.279706 0.244179
v -0.457196 -0.279706 0.044840
v -0.656535 -0.279706 0.117393
v -0.561001 -0.941029 0.267452
v -0.433923 -0.941029 0.221199
v -0.480176 -0.941029 0.094120
v -0.607254 -0.941029 0.140373
v -0.551492 -0.941029 0.247060
v -0.454315 -0.941029 0.211690
v -0.489684 -0.941029 0.114512
v -0.586862 -0.941029 0.149882
v -0.520588 -2.012426 0.180786
vt 0.3345 0.1532
vt 0.2879 0.4843
vt 0.2260 0.1658
vt 0.1914 0.0414
vt 0.1359 0.1618
vt 0.0000 0.0315
vt 0.3542 0.0099
vt 0.4203 0.1492
vt 1.0000 0.0315
vt 0.5772 0.0000
vt 0.2938 0.4818
vt 0.4366 0.4738
vt 0.3699 0.4763
vt 0.3665 0.4769
vt 0.3142 0.4811
vt 0.4158 0.4750
vt 0.2997 0.4831
vt 0.4460 1.0000
vn 0.3414 -0.0580 0.9381
vn 0.8179 -0.4924 -0.2977
vn -0.8179 -0.4924 0.2977
vn 0.2977 -0.4924 0.8179
vn -0.2977 -0.4924 -0.8179
vn -0.3414 -0.0580 -0.9381
vn -0.9381 -0.0580 0.3414
vn 0.9381 -0.0580 -0.3414
vn 0.0000 -1.0000 -0.0000
vn -0.3416 -0.0482 -0.9386
vn 0.3416 -0.0482 0.9386
vn -0.9386 -0.0482 0.3416
vn 0.9386 -0.0482 -0.3416
s off
f 30/27/22 36/28/22 32/29/22
f 28/30/23 33/31/23 27/32/23
f 29/33/24 34/34/24 30/27/24
f 29/33/25 32/29/25 28/30/25
f 27/35/26 34/34/26 31/36/26
f 34/34/27 37/37/27 38/38/27
f 34/34/28 35/39/28 30/27/28
f 32/29/29 37/37/29 33/31/29
f 38/38/30 39/40/30 35/39/30
f 36/28/30 41/41/30 37/37/30
f 37/37/30 42/42/30 38/38/30
f 36/28/30 39/40/30 40/43/30
f 42/42/31 41/41/31 43/44/31
f 40/43/32 39/40/32 43/44/32
f 39/40/33 42/42/33 43/44/33
f 41/41/34 40/43/34 43/44/34
f 30/27/22 35/39/22 36/28/22
f 28/30/23 32/29/23 33/31/23
f 29/33/24 31/36/24 34/34/24
f 29/33/25 30/27/25 32/29/25
f 27/35/26 33/31/26 34/34/26
f 34/34/27 33/31/27 37/37/27
f 34/34/28 38/38/28 35/39/28
f 32/29/29 36/28/29 37/37/29
f 38/38/30 42/42/30 39/40/30
f 36/28/30 40/43/30 41/41/30
f 37/37/30 41/41/30 42/42/30
f 36/28/30 35/39/30 39/40/30
