# WaveFront *.obj file (generated by CINEMA 4D)

g Tank
usemtl Mat_1
v -0.432968 0.125 -0.190255
v -0.432968 0.875 -0.190255
v -0.18972 0.125 -0.433684
v -0.18972 0.875 -0.433684
v 0.432968 0.125 0.190255
v 0.432968 0.875 0.190255
v 0.18972 0.125 0.433684
v 0.18972 0.875 0.433684
v -0.190255 0.125 0.432968
v -0.190255 0.875 0.432968
v -0.433684 0.125 0.18972
v -0.433684 0.875 0.18972
v 0.190255 0.125 -0.432968
v 0.190255 0.875 -0.432968
v 0.433684 0.125 -0.18972
v 0.433684 0.875 -0.18972
v -0.125 0.125 -0.435
v -0.125 0.875 -0.435
v 0.125 0.125 -0.435
v 0.125 0.875 -0.435
v 0.125 0.125 0.435
v 0.125 0.875 0.435
v -0.125 0.125 0.435
v -0.125 0.875 0.435
v 0.435 0.125 -0.125
v 0.435 0.875 -0.125
v 0.435 0.125 0.125
v 0.435 0.875 0.125
v -0.435 0.125 0.125
v -0.435 0.875 0.125
v -0.435 0.125 -0.125
v -0.435 0.875 -0.125
v 0 0.125 0
v 0 0 0
v 0.46194 0.125 0.191342
v 0.46194 0.125 0.191342
v 0.46194 0 0.191342
v 0.46194 0 0.191342
v 0.191342 0.125 0.46194
v 0.191342 0.125 0.46194
v 0.191342 0 0.46194
v 0.191342 0 0.46194
v -0.191342 0.125 0.46194
v -0.191342 0.125 0.46194
v -0.191342 0 0.46194
v -0.191342 0 0.46194
v -0.46194 0.125 0.191342
v -0.46194 0.125 0.191342
v -0.46194 0 0.191342
v -0.46194 0 0.191342
v -0.46194 0.125 -0.191342
v -0.46194 0.125 -0.191342
v -0.46194 0 -0.191342
v -0.46194 0 -0.191342
v -0.191342 0.125 -0.46194
v -0.191342 0.125 -0.46194
v -0.191342 0 -0.46194
v -0.191342 0 -0.46194
v 0.191342 0.125 -0.46194
v 0.191342 0.125 -0.46194
v 0.191342 0 -0.46194
v 0.191342 0 -0.46194
v 0.46194 0.125 -0.191342
v 0.46194 0.125 -0.191342
v 0.46194 0 -0.191342
v 0.46194 0 -0.191342
v -0.382707 0 0.148317
v -0.382261 0 -0.147871
v -0.148324 0 0.382731
v 0.148326 0 0.382731
v 0.382731 0 0.148326
v 0.382731 0 -0.148326
v 0.148326 0 -0.382731
v -0.147878 0 -0.382286
v -0.148292 0.125 -0.382648
v 0.148292 0.125 -0.382648
v 0.382648 0.125 -0.148292
v 0.382648 0.125 0.148292
v 0.148292 0.125 0.382648
v -0.148292 0.125 0.382648
v -0.382648 0.125 0.148292
v -0.382648 0.125 -0.148292
v 0 0.875 0
v 0 1 0
v 0.46194 0.875 -0.191342
v 0.46194 0.875 -0.191342
v 0.46194 1 -0.191342
v 0.46194 1 -0.191342
v 0.191342 0.875 -0.46194
v 0.191342 0.875 -0.46194
v 0.191342 1 -0.46194
v 0.191342 1 -0.46194
v -0.191342 0.875 -0.46194
v -0.191342 0.875 -0.46194
v -0.191342 1 -0.46194
v -0.191342 1 -0.46194
v -0.46194 0.875 -0.191342
v -0.46194 0.875 -0.191342
v -0.46194 1 -0.191342
v -0.46194 1 -0.191342
v -0.46194 0.875 0.191342
v -0.46194 0.875 0.191342
v -0.46194 1 0.191342
v -0.46194 1 0.191342
v -0.191342 0.875 0.46194
v -0.191342 0.875 0.46194
v -0.191342 1 0.46194
v -0.191342 1 0.46194
v 0.191342 0.875 0.46194
v 0.191342 0.875 0.46194
v 0.191342 1 0.46194
v 0.191342 1 0.46194
v 0.46194 0.875 0.191342
v 0.46194 0.875 0.191342
v 0.46194 1 0.191342
v 0.46194 1 0.191342
v -0.382707 1 -0.148317
v -0.382261 1 0.147871
v -0.148324 1 -0.382731
v 0.148326 1 -0.382731
v 0.382731 1 -0.148326
v 0.382731 1 0.148326
v 0.148326 1 0.382731
v -0.147878 1 0.382286
v -0.148292 0.875 0.382648
v 0.148292 0.875 0.382648
v 0.382648 0.875 0.148292
v 0.382648 0.875 -0.148292
v 0.148292 0.875 -0.382648
v -0.148292 0.875 -0.382648
v -0.382648 0.875 -0.148292
v -0.382648 0.875 0.148292
v 0.19125 0.125 -0.39975
v 0.19125 0.875 -0.39975
v 0.19125 0.125 -0.46225
v 0.19125 0.875 -0.46225
v 0.12875 0.125 -0.46225
v 0.12875 0.875 -0.46225
v 0.12875 0.125 -0.39975
v 0.12875 0.875 -0.39975
v -0.128623 0.125 -0.39975
v -0.128623 0.875 -0.39975
v -0.128623 0.125 -0.46225
v -0.128623 0.875 -0.46225
v -0.191123 0.125 -0.46225
v -0.191123 0.875 -0.46225
v -0.191123 0.125 -0.39975
v -0.191123 0.875 -0.39975
v -0.19125 0.125 0.399471
v -0.19125 0.875 0.399471
v -0.19125 0.125 0.461971
v -0.19125 0.875 0.461971
v -0.12875 0.125 0.461971
v -0.12875 0.875 0.461971
v -0.12875 0.125 0.399471
v -0.12875 0.875 0.399471
v 0.128623 0.125 0.399471
v 0.128623 0.875 0.399471
v 0.128623 0.125 0.461971
v 0.128623 0.875 0.461971
v 0.191123 0.125 0.461971
v 0.191123 0.875 0.461971
v 0.191123 0.125 0.399471
v 0.191123 0.875 0.399471
v -0.39975 0.125 -0.19125
v -0.39975 0.875 -0.19125
v -0.46225 0.125 -0.19125
v -0.46225 0.875 -0.19125
v -0.46225 0.125 -0.12875
v -0.46225 0.875 -0.12875
v -0.39975 0.125 -0.12875
v -0.39975 0.875 -0.12875
v -0.39975 0.125 0.128623
v -0.39975 0.875 0.128623
v -0.46225 0.125 0.128623
v -0.46225 0.875 0.128623
v -0.46225 0.125 0.191123
v -0.46225 0.875 0.191123
v -0.39975 0.125 0.191123
v -0.39975 0.875 0.191123
v 0.399471 0.125 0.19125
v 0.399471 0.875 0.19125
v 0.461971 0.125 0.19125
v 0.461971 0.875 0.19125
v 0.461971 0.125 0.12875
v 0.461971 0.875 0.12875
v 0.399471 0.125 0.12875
v 0.399471 0.875 0.12875
v 0.399471 0.125 -0.128623
v 0.399471 0.875 -0.128623
v 0.461971 0.125 -0.128623
v 0.461971 0.875 -0.128623
v 0.461971 0.125 -0.191123
v 0.461971 0.875 -0.191123
v 0.399471 0.125 -0.191123
v 0.399471 0.875 -0.191123

vt 0.28125 0.5625 0
vt 0.28125 0.9375 0
vt 0.125 0.5625 0
vt 0.125 0.9375 0
vt 0.28125 0.5625 0
vt 0.28125 0.9375 0
vt 0.125 0.5625 0
vt 0.125 0.9375 0
vt 0.28125 0.5625 0
vt 0.28125 0.9375 0
vt 0.125 0.5625 0
vt 0.125 0.9375 0
vt 0.28125 0.5625 0
vt 0.28125 0.9375 0
vt 0.125 0.5625 0
vt 0.125 0.9375 0
vt 0.125 0.625 0
vt 0.125 1 0
vt 0 0.625 0
vt 0 1 0
vt 0.125 0.625 0
vt 0.125 1 0
vt 0 0.625 0
vt 0 1 0
vt 0.125 0.625 0
vt 0.125 1 0
vt 0 0.625 0
vt 0 1 0
vt 0.125 0.625 0
vt 0.125 1 0
vt 0 0.625 0
vt 0 1 0
vt 0.75 0.750188 0
vt 0.750006 0.749996 0
vt 0.563615 0.001273 0
vt 0.686871 0.000731 0
vt 1 0.437392 0
vt 0.8125 0.437392 0
vt 1 0.500108 0
vt 0.8125 0.500108 0
vt 0.565055 0.000214 0
vt 0.687491 0.000116 0
vt 0.562084 0.000731 0
vt 0.688403 0.001289 0
vt 0.8125 0.437392 0
vt 1 0.437392 0
vt 1 0.500108 0
vt 0.8125 0.500108 0
vt 0.563811 0.000363 0
vt 0.687514 0.000214 0
vt 0.563615 0.001289 0
vt 0.687434 0.001293 0
vt 0.8125 0.437392 0
vt 1 0.437392 0
vt 1 0.500108 0
vt 0.8125 0.500108 0
vt 0.562565 0.000206 0
vt 0.686269 0.000363 0
vt 0.562646 0.001293 0
vt 0.686465 0.001289 0
vt 0.8125 0.437392 0
vt 1 0.437392 0
vt 1 0.500108 0
vt 0.8125 0.500108 0
vt 0.5626 0.000107 0
vt 0.685024 0.000206 0
vt 0.561678 0.001289 0
vt 0.686699 0.000671 0
vt 0.8125 0.437392 0
vt 1 0.437392 0
vt 1 0.500108 0
vt 0.8125 0.500108 0
vt 0.562567 -0.00032 0
vt 0.685058 0.000107 0
vt 0.561911 0.000671 0
vt 0.687853 0.001554 0
vt 0.8125 0.437392 0
vt 1 0.437392 0
vt 1 0.500108 0
vt 0.8125 0.500108 0
vt 0.563811 -0.000118 0
vt 0.685026 -0.00032 0
vt 0.563065 0.001554 0
vt 0.687434 0.000168 0
vt 0.8125 0.437392 0
vt 1 0.437392 0
vt 1 0.500108 0
vt 0.8125 0.500108 0
vt 0.565055 -0.000322 0
vt 0.686269 -0.000118 0
vt 0.562646 0.000168 0
vt 0.688403 0.001273 0
vt 0.8125 0.437392 0
vt 1 0.437392 0
vt 1 0.500108 0
vt 0.8125 0.500108 0
vt 0.565033 0.000116 0
vt 0.687514 -0.000322 0
vt 0.676831 0.046562 0
vt 0.570792 0.046463 0
vt 0.540415 0.836812 0
vt 0.57076 0.046036 0
vt 0.676866 0.046463 0
vt 0.540415 0.66318 0
vt 0.67808 0.046702 0
vt 0.570755 0.046546 0
vt 0.663185 0.959599 0
vt 0.679324 0.046553 0
vt 0.572 0.046702 0
vt 0.836827 0.959599 0
vt 0.679302 0.046455 0
vt 0.573245 0.046553 0
vt 0.95961 0.836817 0
vt 0.679324 0.046017 0
vt 0.573222 0.046455 0
vt 0.95961 0.663176 0
vt 0.67808 0.046221 0
vt 0.573245 0.046017 0
vt 0.836827 0.540393 0
vt 0.572 0.046221 0
vt 0.676836 0.046019 0
vt 0.663185 0.540393 0
vt 0.570268 0.04578 0
vt 0.679496 0.046663 0
vt 0.959693 0.837046 0
vt 0.679077 0.045277 0
vt 0.571422 0.046663 0
vt 0.959693 0.663329 0
vt 0.680046 0.046382 0
vt 0.571003 0.045277 0
vt 0.836857 0.540495 0
vt 0.678515 0.04584 0
vt 0.571971 0.046382 0
vt 0.663143 0.540495 0
vt 0.680046 0.046398 0
vt 0.57044 0.04584 0
vt 0.540307 0.663329 0
vt 0.679077 0.046402 0
vt 0.571971 0.046398 0
vt 0.540307 0.837046 0
vt 0.678109 0.046398 0
vt 0.571003 0.046402 0
vt 0.663143 0.959882 0
vt 0.570034 0.046398 0
vt 0.678342 0.045779 0
vt 0.836857 0.959882 0
vt 0.250001 0.250188 0
vt 0.250006 0.249996 0
vt 0.563615 0.001273 0
vt 0.686871 0.000731 0
vt 0.8125 0.062392 0
vt 0.625 0.062392 0
vt 0.8125 0.125108 0
vt 0.625 0.125108 0
vt 0.565055 0.000214 0
vt 0.687491 0.000116 0
vt 0.562084 0.000731 0
vt 0.688403 0.001289 0
vt 0.625 0.062392 0
vt 0.8125 0.062392 0
vt 0.8125 0.125108 0
vt 0.625 0.125108 0
vt 0.563811 0.000363 0
vt 0.687514 0.000214 0
vt 0.563615 0.001289 0
vt 0.687434 0.001293 0
vt 0.625 0.062392 0
vt 0.8125 0.062392 0
vt 0.8125 0.125108 0
vt 0.625 0.125108 0
vt 0.562565 0.000206 0
vt 0.686269 0.000363 0
vt 0.562646 0.001293 0
vt 0.686465 0.001289 0
vt 0.625 0.062392 0
vt 0.8125 0.062392 0
vt 0.8125 0.125108 0
vt 0.625 0.125108 0
vt 0.5626 0.000107 0
vt 0.685024 0.000206 0
vt 0.561678 0.001289 0
vt 0.686699 0.000671 0
vt 0.625 0.062392 0
vt 0.8125 0.062392 0
vt 0.8125 0.125108 0
vt 0.625 0.125108 0
vt 0.562567 -0.00032 0
vt 0.685058 0.000107 0
vt 0.561911 0.000671 0
vt 0.687853 0.001554 0
vt 0.625 0.062392 0
vt 0.8125 0.062392 0
vt 0.8125 0.125108 0
vt 0.625 0.125108 0
vt 0.563811 -0.000118 0
vt 0.685026 -0.00032 0
vt 0.563065 0.001554 0
vt 0.687434 0.000168 0
vt 0.625 0.062392 0
vt 0.8125 0.062392 0
vt 0.8125 0.125108 0
vt 0.625 0.125108 0
vt 0.565055 -0.000322 0
vt 0.686269 -0.000118 0
vt 0.562646 0.000168 0
vt 0.688403 0.001273 0
vt 0.625 0.062392 0
vt 0.8125 0.062392 0
vt 0.8125 0.125108 0
vt 0.625 0.125108 0
vt 0.565033 0.000116 0
vt 0.687514 -0.000322 0
vt 0.676831 0.046562 0
vt 0.570792 0.046463 0
vt 0.040415 0.336812 0
vt 0.57076 0.046036 0
vt 0.676866 0.046463 0
vt 0.040415 0.16318 0
vt 0.67808 0.046702 0
vt 0.570755 0.046546 0
vt 0.163186 0.459599 0
vt 0.679324 0.046553 0
vt 0.572 0.046702 0
vt 0.336827 0.459599 0
vt 0.679302 0.046455 0
vt 0.573245 0.046553 0
vt 0.45961 0.336817 0
vt 0.679324 0.046017 0
vt 0.573222 0.046455 0
vt 0.45961 0.163176 0
vt 0.67808 0.046221 0
vt 0.573245 0.046017 0
vt 0.336827 0.040393 0
vt 0.572 0.046221 0
vt 0.676836 0.046019 0
vt 0.163186 0.040393 0
vt 0.570268 0.04578 0
vt 0.679496 0.046663 0
vt 0.459693 0.337046 0
vt 0.679077 0.045277 0
vt 0.571422 0.046663 0
vt 0.459693 0.163329 0
vt 0.680046 0.046382 0
vt 0.571003 0.045277 0
vt 0.336857 0.040495 0
vt 0.678515 0.04584 0
vt 0.571971 0.046382 0
vt 0.163143 0.040495 0
vt 0.680046 0.046398 0
vt 0.57044 0.04584 0
vt 0.040307 0.163329 0
vt 0.679077 0.046402 0
vt 0.571971 0.046398 0
vt 0.040307 0.337046 0
vt 0.678109 0.046398 0
vt 0.571003 0.046402 0
vt 0.163143 0.459882 0
vt 0.570034 0.046398 0
vt 0.678342 0.045779 0
vt 0.336857 0.459882 0
vt 0.546875 0.0625 0
vt 0.53125 0.0625 0
vt 0.546875 0.4375 0
vt 0.53125 0.4375 0
vt 0.5625 0.4375 0
vt 0.5625 0.0625 0
vt 0.5625 0.4375 0
vt 0.5625 0.0625 0
vt 0.546875 0.4375 0
vt 0.53125 0.4375 0
vt 0.53125 0.0625 0
vt 0.546875 0.0625 0
vt 0.515625 0.0625 0
vt 0.515625 0.4375 0
vt 0.515625 0.0625 0
vt 0.515625 0.4375 0
vt 0.515625 0.4375 0
vt 0.515625 0.0625 0
vt 0.515625 0.0625 0
vt 0.515625 0.4375 0
vt 0.53125 0.0625 0
vt 0.546875 0.0625 0
vt 0.546875 0.4375 0
vt 0.53125 0.4375 0
vt 0.5 0.0625 0
vt 0.5625 0.0625 0
vt 0.5625 0.4375 0
vt 0.5 0.4375 0
vt 0.546875 0.4375 0
vt 0.53125 0.0625 0
vt 0.53125 0.4375 0
vt 0.546875 0.0625 0
vt 0.546875 0.0625 0
vt 0.53125 0.0625 0
vt 0.546875 0.4375 0
vt 0.53125 0.4375 0
vt 0.5625 0.4375 0
vt 0.5625 0.0625 0
vt 0.5625 0.4375 0
vt 0.5625 0.0625 0
vt 0.546875 0.4375 0
vt 0.53125 0.4375 0
vt 0.53125 0.0625 0
vt 0.546875 0.0625 0
vt 0.515625 0.0625 0
vt 0.515625 0.4375 0
vt 0.515625 0.0625 0
vt 0.515625 0.4375 0
vt 0.515625 0.4375 0
vt 0.515625 0.0625 0
vt 0.515625 0.0625 0
vt 0.515625 0.4375 0
vt 0.53125 0.0625 0
vt 0.546875 0.0625 0
vt 0.546875 0.4375 0
vt 0.53125 0.4375 0
vt 0.5 0.0625 0
vt 0.5625 0.0625 0
vt 0.5625 0.4375 0
vt 0.5 0.4375 0
vt 0.546875 0.4375 0
vt 0.53125 0.0625 0
vt 0.53125 0.4375 0
vt 0.546875 0.0625 0
vt 0.546875 0.0625 0
vt 0.53125 0.0625 0
vt 0.546875 0.4375 0
vt 0.53125 0.4375 0
vt 0.5625 0.4375 0
vt 0.5625 0.0625 0
vt 0.5625 0.4375 0
vt 0.5625 0.0625 0
vt 0.546875 0.4375 0
vt 0.53125 0.4375 0
vt 0.53125 0.0625 0
vt 0.546875 0.0625 0
vt 0.515625 0.0625 0
vt 0.515625 0.4375 0
vt 0.515625 0.0625 0
vt 0.515625 0.4375 0
vt 0.515625 0.4375 0
vt 0.515625 0.0625 0
vt 0.515625 0.0625 0
vt 0.515625 0.4375 0
vt 0.53125 0.0625 0
vt 0.546875 0.0625 0
vt 0.546875 0.4375 0
vt 0.53125 0.4375 0
vt 0.5 0.0625 0
vt 0.5625 0.0625 0
vt 0.5625 0.4375 0
vt 0.5 0.4375 0
vt 0.546875 0.4375 0
vt 0.53125 0.0625 0
vt 0.53125 0.4375 0
vt 0.546875 0.0625 0
vt 0.546875 0.0625 0
vt 0.53125 0.0625 0
vt 0.546875 0.4375 0
vt 0.53125 0.4375 0
vt 0.5625 0.4375 0
vt 0.5625 0.0625 0
vt 0.5625 0.4375 0
vt 0.5625 0.0625 0
vt 0.546875 0.4375 0
vt 0.53125 0.4375 0
vt 0.53125 0.0625 0
vt 0.546875 0.0625 0
vt 0.515625 0.0625 0
vt 0.515625 0.4375 0
vt 0.515625 0.0625 0
vt 0.515625 0.4375 0
vt 0.515625 0.0625 0
vt 0.515625 0.4375 0
vt 0.515625 0.0625 0
vt 0.515625 0.4375 0
vt 0.53125 0.0625 0
vt 0.546875 0.0625 0
vt 0.546875 0.4375 0
vt 0.53125 0.4375 0
vt 0.5 0.0625 0
vt 0.5625 0.0625 0
vt 0.5625 0.4375 0
vt 0.5 0.4375 0
vt 0.53125 0.0625 0
vt 0.546875 0.4375 0
vt 0.53125 0.4375 0
vt 0.546875 0.0625 0

f 2/2 4/4 3/3 
f 6/6 8/8 7/7 
f 10/10 12/12 11/11 
f 14/14 16/16 15/15 
f 18/18 20/20 19/19 
f 22/22 24/24 23/23 
f 26/26 28/28 27/27 
f 30/30 32/32 31/31 
f 33/33 79/137 78/134 
f 41/47 37/40 36/38 
f 70/110 34/34 71/113 
f 33/33 80/140 79/137 
f 45/55 41/48 40/45 
f 69/107 34/34 70/110 
f 33/33 81/143 80/140 
f 49/63 45/56 44/53 
f 67/101 34/34 69/107 
f 33/33 82/146 81/143 
f 53/71 49/64 48/61 
f 68/104 34/34 67/101 
f 75/125 82/146 33/33 
f 57/79 53/72 52/69 
f 74/122 34/34 68/104 
f 33/33 76/128 75/125 
f 61/87 57/80 56/77 
f 73/119 34/34 74/122 
f 33/33 77/131 76/128 
f 65/95 61/88 60/85 
f 72/116 34/34 73/119 
f 33/33 78/134 77/131 
f 37/39 65/96 64/93 
f 71/113 34/34 72/116 
f 50/65 54/74 68/103 
f 46/57 50/66 67/99 
f 42/49 46/58 69/105 
f 38/41 42/50 70/108 
f 66/97 38/42 71/111 
f 62/89 66/98 72/114 
f 54/73 58/82 74/121 
f 58/81 62/90 73/117 
f 59/83 55/76 75/124 
f 63/91 59/84 76/126 
f 35/35 63/92 77/129 
f 39/43 35/36 78/132 
f 43/51 39/44 79/135 
f 47/59 43/52 80/138 
f 55/75 51/68 82/145 
f 51/67 47/60 81/141 
f 40/46 41/47 36/38 
f 44/54 45/55 40/45 
f 48/62 49/63 44/53 
f 52/70 53/71 48/61 
f 56/78 57/79 52/69 
f 60/86 61/87 56/77 
f 64/94 65/95 60/85 
f 36/37 37/39 64/93 
f 67/100 50/65 68/103 
f 69/106 46/57 67/99 
f 70/109 42/49 69/105 
f 71/112 38/41 70/108 
f 72/115 66/97 71/111 
f 73/118 62/89 72/114 
f 68/102 54/73 74/121 
f 74/120 58/81 73/117 
f 76/127 59/83 75/124 
f 77/130 63/91 76/126 
f 78/133 35/35 77/129 
f 79/136 39/43 78/132 
f 80/139 43/51 79/135 
f 81/142 47/59 80/138 
f 75/123 55/75 82/145 
f 82/144 51/67 81/141 
f 83/147 129/251 128/248 
f 91/161 87/154 86/152 
f 120/224 84/148 121/227 
f 83/147 130/254 129/251 
f 95/169 91/162 90/159 
f 119/221 84/148 120/224 
f 83/147 131/257 130/254 
f 99/177 95/170 94/167 
f 117/215 84/148 119/221 
f 83/147 132/260 131/257 
f 103/185 99/178 98/175 
f 118/218 84/148 117/215 
f 125/239 132/260 83/147 
f 107/193 103/186 102/183 
f 124/236 84/148 118/218 
f 83/147 126/242 125/239 
f 111/201 107/194 106/191 
f 123/233 84/148 124/236 
f 83/147 127/245 126/242 
f 115/209 111/202 110/199 
f 122/230 84/148 123/233 
f 83/147 128/248 127/245 
f 87/153 115/210 114/207 
f 121/227 84/148 122/230 
f 100/179 104/188 118/217 
f 96/171 100/180 117/213 
f 92/163 96/172 119/219 
f 88/155 92/164 120/222 
f 116/211 88/156 121/225 
f 112/203 116/212 122/228 
f 104/187 108/196 124/235 
f 108/195 112/204 123/231 
f 109/197 105/190 125/238 
f 113/205 109/198 126/240 
f 85/149 113/206 127/243 
f 89/157 85/150 128/246 
f 93/165 89/158 129/249 
f 97/173 93/166 130/252 
f 105/189 101/182 132/259 
f 101/181 97/174 131/255 
f 90/160 91/161 86/152 
f 94/168 95/169 90/159 
f 98/176 99/177 94/167 
f 102/184 103/185 98/175 
f 106/192 107/193 102/183 
f 110/200 111/201 106/191 
f 114/208 115/209 110/199 
f 86/151 87/153 114/207 
f 117/214 100/179 118/217 
f 119/220 96/171 117/213 
f 120/223 92/163 119/219 
f 121/226 88/155 120/222 
f 122/229 116/211 121/225 
f 123/232 112/203 122/228 
f 118/216 104/187 124/235 
f 124/234 108/195 123/231 
f 126/241 109/197 125/238 
f 127/244 113/205 126/240 
f 128/247 85/149 127/243 
f 129/250 89/157 128/246 
f 130/253 93/165 129/249 
f 131/256 97/173 130/252 
f 125/237 105/189 132/259 
f 132/258 101/181 131/255 
f 190/375 196/388 195/386 
f 136/267 134/264 133/262 
f 138/271 136/268 135/265 
f 140/275 138/272 137/269 
f 134/263 140/276 139/273 
f 144/283 142/280 141/278 
f 146/287 144/284 143/281 
f 148/291 146/288 145/285 
f 142/279 148/292 147/289 
f 152/299 150/296 149/294 
f 154/303 152/300 151/297 
f 156/307 154/304 153/301 
f 150/295 156/308 155/305 
f 160/315 158/312 157/310 
f 162/319 160/316 159/313 
f 164/323 162/320 161/317 
f 158/311 164/324 163/321 
f 168/331 166/328 165/326 
f 170/335 168/332 167/329 
f 172/339 170/336 169/333 
f 166/327 172/340 171/337 
f 176/347 174/344 173/342 
f 178/351 176/348 175/345 
f 180/355 178/352 177/349 
f 174/343 180/356 179/353 
f 184/363 182/360 181/358 
f 186/367 184/364 183/361 
f 188/371 186/368 185/365 
f 182/359 188/372 187/369 
f 192/379 190/376 189/373 
f 194/383 192/380 191/377 
f 196/387 194/384 193/381 
f 1/1 2/2 3/3 
f 5/5 6/6 7/7 
f 9/9 10/10 11/11 
f 13/13 14/14 15/15 
f 17/17 18/18 19/19 
f 21/21 22/22 23/23 
f 25/25 26/26 27/27 
f 29/29 30/30 31/31 
f 189/374 190/375 195/386 
f 135/266 136/267 133/262 
f 137/270 138/271 135/265 
f 139/274 140/275 137/269 
f 133/261 134/263 139/273 
f 143/282 144/283 141/278 
f 145/286 146/287 143/281 
f 147/290 148/291 145/285 
f 141/277 142/279 147/289 
f 151/298 152/299 149/294 
f 153/302 154/303 151/297 
f 155/306 156/307 153/301 
f 149/293 150/295 155/305 
f 159/314 160/315 157/310 
f 161/318 162/319 159/313 
f 163/322 164/323 161/317 
f 157/309 158/311 163/321 
f 167/330 168/331 165/326 
f 169/334 170/335 167/329 
f 171/338 172/339 169/333 
f 165/325 166/327 171/337 
f 175/346 176/347 173/342 
f 177/350 178/351 175/345 
f 179/354 180/355 177/349 
f 173/341 174/343 179/353 
f 183/362 184/363 181/358 
f 185/366 186/367 183/361 
f 187/370 188/371 185/365 
f 181/357 182/359 187/369 
f 191/378 192/379 189/373 
f 193/382 194/383 191/377 
f 195/385 196/387 193/381 

